<svg width="180" height="180" viewBox="0 0 180 180" fill="none" xmlns="http://www.w3.org/2000/svg">
<g clip-path="url(#clip0_60_22)">
<path d="M90.0025 125.548C84.1018 125.548 79.3111 130.333 79.3111 136.234C79.3111 142.137 84.1018 146.923 90.0025 146.923C95.9031 146.923 100.689 142.137 100.689 136.234C100.689 130.333 95.9034 125.548 90.0025 125.548Z" fill="#00A24F"/>
<path d="M177.573 143.128L105.739 18.7063C102.504 13.101 96.4733 9.61945 89.9971 9.61945C83.5259 9.61945 77.5012 13.1013 74.2658 18.7063L2.42645 143.123C-0.808979 148.727 -0.808979 155.691 2.42645 161.296C5.66223 166.901 11.6922 170.381 18.1634 170.381H161.836C168.307 170.381 174.338 166.901 177.573 161.296C180.809 155.691 180.809 148.727 177.573 143.128ZM163.288 152.017C162.251 153.811 160.32 154.923 158.244 154.923H21.7539C19.6825 154.923 17.7482 153.811 16.7164 152.012C15.6744 150.216 15.6691 147.988 16.7115 146.194L84.9575 27.9851C85.9921 26.1911 87.9233 25.0763 90.0024 25.0763C92.0766 25.0763 94.0053 26.1911 95.0424 27.9879L163.288 146.192C164.326 147.988 164.326 150.221 163.288 152.017Z" fill="#00A24F"/>
<path d="M90.0025 53.6903C84.1018 53.6903 79.3111 58.4761 79.3111 64.3795L83.4173 112.715C83.4173 116.352 86.3627 119.297 90.0025 119.297C93.6369 119.297 96.5876 116.352 96.5876 112.715L100.689 64.3795C100.689 58.4757 95.9034 53.6903 90.0025 53.6903Z" fill="#00A24F"/>
</g>
<defs>
<clipPath id="clip0_60_22">
<rect width="180" height="180" fill="white"/>
</clipPath>
</defs>
</svg>
