<svg width="233" height="44" viewBox="0 0 233 44" fill="none" xmlns="http://www.w3.org/2000/svg">
<path d="M5.61493 0C4.12221 0.0106249 2.69411 0.634241 1.6422 1.73479C0.590298 2.83534 -3.49969e-05 4.3235 1.5561e-09 5.87459V43.8583H36.5939C38.0927 43.8561 39.5295 43.2365 40.5894 42.1353C41.6492 41.034 42.2455 39.5411 42.2475 37.9837V0H5.61493ZM32.373 31.6665L9.87454 35.8913V12.3125L32.373 8.08763V31.6665Z" fill="#0060A9"/>
<path d="M114.506 12.7551C107.845 12.7551 103.16 17.7445 103.121 25.7919C103.121 33.1552 108.775 37.702 114.545 37.702C117.991 37.702 120.121 37.1387 121.36 36.0925V32.0286C119.569 32.8551 117.627 33.267 115.668 33.2357C112.105 33.2357 109.24 31.2239 108.775 28.0049L108.736 27.7232H112.88C116.791 27.7232 119.54 27.3611 121.283 26.4759C123.025 25.5907 123.761 24.2226 123.761 22.0498C123.761 16.2959 119.308 12.7551 114.506 12.7551ZM117.217 23.3374C116.132 23.7398 114.428 23.9007 111.602 23.9007H108.697V23.619L108.736 22.8143C108.852 19.9172 110.943 17.3421 113.964 17.3421C115.169 17.2826 116.362 17.6206 117.371 18.3078C117.802 18.6511 118.147 19.0974 118.376 19.6088C118.605 20.1202 118.712 20.6815 118.688 21.2451C118.727 22.2107 118.301 22.935 117.217 23.3374ZM126.626 22.0498V37.2996H132.086V23.1764C132.086 21.2853 132.435 19.9172 133.209 18.9918C133.984 18.0663 135.068 17.7042 136.424 17.7042C136.916 17.6995 137.409 17.7399 137.895 17.8249V13.3184C137.037 12.8956 136.095 12.6888 135.146 12.7148C129.027 12.755 126.626 17.2616 126.626 22.0498ZM60.3702 37.2996V6.59886H54.9489V37.2996H60.3702ZM75.0465 12.7551C67.7664 12.7551 64.6298 17.9054 64.5911 22.9753V37.2996H70.0124V23.3777C69.9534 21.8642 70.3902 20.3748 71.2516 19.1528C71.6557 18.659 72.1611 18.2654 72.7306 18.0008C73.3001 17.7362 73.9194 17.6074 74.5431 17.6238C76.092 17.6238 77.3699 18.1066 78.2606 19.1126C79.1512 20.1185 79.5772 21.728 79.5772 23.8203V37.2996H84.9985V23.2972C84.9985 16.4971 80.5065 12.7551 75.0465 12.7551ZM94.5632 6.59886H89.1806V28.7694C89.2194 34.4026 91.93 37.702 97.816 37.7423C100.333 37.7423 101.805 36.8973 102.424 35.5292V32.0286C101.456 32.4712 100.139 32.6724 98.513 32.6724C97.2739 32.6724 96.2671 32.3505 95.57 31.586C94.873 30.8215 94.5245 29.6546 94.5245 28.0049V17.6238H99.2488C101.572 17.6238 102.54 16.0948 102.54 14.9681V12.7149H94.5632V6.59886ZM197.375 12.7551C190.095 12.7551 186.958 17.9054 186.919 22.9753L186.958 37.2996H192.341V23.3777C192.341 21.567 192.805 20.1587 193.58 19.1528C193.984 18.659 194.489 18.2654 195.059 18.0008C195.628 17.7362 196.248 17.6074 196.871 17.6238C198.42 17.6238 199.698 18.1066 200.589 19.1528C201.479 20.1989 201.905 21.728 201.905 23.8203V37.2996H207.288V23.2972C207.328 16.4971 202.873 12.7551 197.375 12.7551ZM152.262 12.7551C149.203 12.7551 147.305 14.6462 146.182 16.3764L145.756 17.0202V6.59886H140.373V25.6309C140.373 33.7186 145.059 37.7423 151.139 37.7423C158.07 37.7423 162.446 32.0688 162.446 24.8262C162.446 17.7043 158.032 12.7551 152.262 12.7551ZM151.758 32.9541C149.977 32.9541 148.389 32.431 147.344 31.0629C146.298 29.6949 145.795 27.6025 145.795 24.7457C145.795 20.8427 148.079 17.664 151.177 17.6238C152.997 17.6238 154.469 18.1469 155.476 19.4747C156.483 20.8025 156.986 22.8143 156.986 25.8321C156.947 29.8961 154.817 32.9541 151.758 32.9541ZM173.56 12.7551C170.268 12.7551 168.1 13.6806 166.589 14.8877V18.8309C168.487 17.8936 170.568 17.4254 172.669 17.4628C174.45 17.4628 175.999 17.7445 176.89 18.4688C177.78 19.193 178.206 20.4404 178.206 22.2108V22.7741H175.883C167.209 22.8143 164.343 25.9931 164.343 30.2179C164.343 34.5635 168.061 37.7423 173.598 37.7423H174.799C179.949 37.7423 183.512 34.2819 183.512 29.212V23.5788C183.55 15.0084 178.787 12.7954 173.56 12.7551ZM178.284 29.2523C178.284 30.5398 177.974 31.5458 177.277 32.27C176.58 32.9943 175.573 33.276 174.257 33.276C173.14 33.3355 172.033 33.0408 171.081 32.431C170.704 32.1565 170.4 31.7876 170.197 31.3586C169.994 30.9295 169.899 30.4542 169.92 29.9765C169.885 29.4678 169.991 28.9594 170.224 28.5107C170.457 28.0619 170.808 27.6911 171.236 27.4416C172.166 26.8783 173.676 26.6368 175.922 26.6368H178.284V29.2523ZM222.777 24.5848L222.661 24.4238L222.777 24.2629C225.14 21.1646 230.29 15.1291 232.187 13.3184H229.206C227.308 13.3184 226.03 13.5196 224.675 14.8474C221.964 17.5031 219.718 20.6416 217.434 23.6996L217.008 24.3031L217.046 6.59887H211.586V37.2594H217.046V24.8262L217.472 25.4298C220.066 29.0108 222.7 32.6322 225.72 35.8511C226.73 36.8385 228.052 37.4105 229.438 37.4606C230.948 37.4606 231.8 37.0582 232.381 36.334C230.832 34.4428 224.636 26.9185 222.777 24.5848Z" fill="white"/>
</svg>
