<svg width="233" height="46" viewBox="0 0 233 46" fill="none" xmlns="http://www.w3.org/2000/svg">
<path d="M5.88919 1.08175C4.39647 1.09237 2.96837 1.71599 1.91646 2.81654C0.864559 3.91709 0.274226 5.40525 0.274261 6.95634V44.94H36.8681C38.367 44.9379 39.8038 44.3183 40.8636 43.217C41.9234 42.1158 42.5198 40.6228 42.5218 39.0654V1.08175H5.88919ZM32.6473 32.7482L10.1488 36.9731V13.3943L32.6473 9.16937V32.7482Z" fill="#0060A9"/>
<path d="M114.78 13.8369C108.12 13.8369 103.434 18.8262 103.395 26.8736C103.395 34.237 109.049 38.7838 114.819 38.7838C118.265 38.7838 120.395 38.2205 121.634 37.1743V33.1103C119.844 33.9369 117.901 34.3488 115.942 34.3175C112.379 34.3175 109.514 32.3056 109.049 29.0867L109.01 28.805H113.154C117.065 28.805 119.814 28.4429 121.557 27.5576C123.299 26.6724 124.035 25.3044 124.035 23.1316C124.035 17.3777 119.582 13.8369 114.78 13.8369ZM117.491 24.4192C116.407 24.8215 114.703 24.9825 111.876 24.9825H108.972V24.7008L109.01 23.896C109.126 20.999 111.218 18.4238 114.238 18.4238C115.444 18.3644 116.636 18.7024 117.646 19.3895C118.077 19.7329 118.421 20.1792 118.65 20.6906C118.88 21.2019 118.987 21.7633 118.962 22.3268C119.001 23.2925 118.575 24.0168 117.491 24.4192ZM126.901 23.1315V38.3813H132.361V24.2582C132.361 22.367 132.709 20.999 133.484 20.0735C134.258 19.1481 135.342 18.786 136.698 18.786C137.191 18.7813 137.683 18.8216 138.169 18.9066V14.4001C137.311 13.9773 136.369 13.7705 135.42 13.7966C129.302 13.8367 126.901 18.3433 126.901 23.1315ZM60.6445 38.3814V7.68061H55.2232V38.3814H60.6445ZM75.3208 13.8369C68.0407 13.8369 64.9041 18.9872 64.8654 24.057V38.3814H70.2867V24.4594C70.2276 22.946 70.6645 21.4565 71.5258 20.2345C71.93 19.7407 72.4353 19.3471 73.0049 19.0825C73.5744 18.818 74.1937 18.6892 74.8174 18.7055C76.3663 18.7055 77.6442 19.1884 78.5348 20.1943C79.4255 21.2002 79.8514 22.8097 79.8514 24.902V38.3814H85.2728V24.3789C85.2728 17.5789 80.7808 13.8369 75.3208 13.8369ZM94.8375 7.68061H89.4549V29.8512C89.4937 35.4843 92.2043 38.7838 98.0903 38.824C100.607 38.824 102.079 37.979 102.698 36.611V33.1103C101.73 33.553 100.414 33.7541 98.7873 33.7541C97.5482 33.7541 96.5413 33.4322 95.8443 32.6677C95.1473 31.9032 94.7988 30.7364 94.7988 29.0867V18.7055H99.5231C101.846 18.7055 102.815 17.1765 102.815 16.0499V13.7966H94.8375V7.68061ZM197.649 13.8369C190.369 13.8369 187.232 18.9872 187.193 24.057L187.232 38.3814H192.615V24.4594C192.615 22.6487 193.08 21.2405 193.854 20.2345C194.258 19.7407 194.764 19.3471 195.333 19.0825C195.903 18.818 196.522 18.6892 197.146 18.7055C198.695 18.7055 199.972 19.1884 200.863 20.2345C201.754 21.2807 202.18 22.8097 202.18 24.902V38.3814H207.562V24.3789C207.602 17.5789 203.148 13.8369 197.649 13.8369ZM152.536 13.8369C149.477 13.8369 147.58 15.728 146.457 17.4582L146.031 18.102V7.68061H140.648V26.7127C140.648 34.8003 145.333 38.824 151.413 38.824C158.344 38.824 162.72 33.1506 162.72 25.9079C162.72 18.786 158.306 13.8369 152.536 13.8369ZM152.033 34.0358C150.251 34.0358 148.664 33.5127 147.618 32.1447C146.572 30.7766 146.069 28.6843 146.069 25.8275C146.069 21.9245 148.354 18.7458 151.452 18.7055C153.272 18.7055 154.743 19.2286 155.75 20.5564C156.757 21.8842 157.26 23.8961 157.26 26.9139C157.221 30.9778 155.092 34.0358 152.033 34.0358ZM173.834 13.8369C170.542 13.8369 168.374 14.7623 166.864 15.9694V19.9126C168.761 18.9754 170.842 18.5072 172.943 18.5446C174.725 18.5446 176.273 18.8262 177.164 19.5505C178.055 20.2748 178.481 21.5221 178.481 23.2925V23.8559H176.157C167.483 23.896 164.618 27.0748 164.618 31.2997C164.618 35.6453 168.335 38.824 173.873 38.824H175.073C180.223 38.824 183.786 35.3636 183.786 30.2938V24.6606C183.825 16.0901 179.062 13.8771 173.834 13.8369ZM178.558 30.334C178.558 31.6216 178.248 32.6275 177.551 33.3518C176.854 34.076 175.847 34.3577 174.531 34.3577C173.414 34.4172 172.307 34.1225 171.356 33.5127C170.979 33.2382 170.675 32.8694 170.472 32.4403C170.269 32.0113 170.173 31.5359 170.194 31.0583C170.16 30.5495 170.265 30.0412 170.498 29.5924C170.731 29.1436 171.082 28.7729 171.51 28.5233C172.44 27.96 173.95 27.7186 176.196 27.7186H178.558V30.334ZM223.052 25.6665L222.936 25.5056L223.052 25.3446C225.414 22.2464 230.564 16.2108 232.462 14.4002H229.48C227.582 14.4002 226.304 14.6014 224.949 15.9292C222.238 18.5848 219.992 21.7233 217.708 24.7813L217.282 25.3849L217.321 7.68062H211.86V38.3412H217.32V25.9079L217.746 26.5115C220.341 30.0926 222.974 33.7139 225.994 36.9329C227.005 37.9202 228.326 38.4923 229.712 38.5423C231.222 38.5423 232.074 38.14 232.655 37.4157C231.106 35.5246 224.91 28.0003 223.052 25.6665Z" fill="#00A24F"/>
</svg>
